<?xml version="1.0" encoding="UTF-8" standalone="no"?>
<svg
   id="Layer_1"
   data-name="Layer 1"
   viewBox="0 0 206.39 146.06"
   version="1.1"
   sodipodi:docname="tipo_sensores.svg"
   inkscape:version="1.1.2 (b8e25be833, 2022-02-05)"
   inkscape:export-filename="G:\UNA\Clases\ECG-UNA\TELE\contenidos\c03_sensores\fig\tipo_sensores.png"
   inkscape:export-xdpi="299.94516"
   inkscape:export-ydpi="299.94516"
   xmlns:inkscape="http://www.inkscape.org/namespaces/inkscape"
   xmlns:sodipodi="http://sodipodi.sourceforge.net/DTD/sodipodi-0.dtd"
   xmlns="http://www.w3.org/2000/svg"
   xmlns:svg="http://www.w3.org/2000/svg">
  <sodipodi:namedview
     id="namedview161"
     pagecolor="#ffffff"
     bordercolor="#666666"
     borderopacity="1.0"
     inkscape:pageshadow="2"
     inkscape:pageopacity="0.0"
     inkscape:pagecheckerboard="0"
     showgrid="false"
     inkscape:zoom="5.1262174"
     inkscape:cx="103.09746"
     inkscape:cy="72.95828"
     inkscape:window-width="1920"
     inkscape:window-height="1009"
     inkscape:window-x="-1928"
     inkscape:window-y="-8"
     inkscape:window-maximized="1"
     inkscape:current-layer="Layer_1" />
  <defs
     id="defs4">
    <style
       id="style2">.cls-1{fill:#010101;}.cls-2{fill:none;}.cls-3{fill:#190e22;}.cls-4{font-size:9.6px;fill:#231f20;font-family:MyriadPro-Regular, Myriad Pro;}.cls-5{letter-spacing:0.01em;}.cls-6{letter-spacing:0em;}.cls-7{letter-spacing:-0.01em;}.cls-8{letter-spacing:-0.01em;}.cls-9{letter-spacing:-0.01em;}.cls-10{letter-spacing:0.01em;}</style>
  </defs>
  <path
     class="cls-1"
     d="M18.28,65.2a19.22,19.22,0,0,1-.88-3l-7.23,6.17L19.66,68A19.69,19.69,0,0,1,18.28,65.2Z"
     transform="translate(-8.68 -33.36)"
     id="path6" />
  <path
     class="cls-1"
     d="M21.29,70.2l-3.18,9,8-5.08a18.32,18.32,0,0,1-2.59-1.74A17.19,17.19,0,0,1,21.29,70.2Z"
     transform="translate(-8.68 -33.36)"
     id="path8" />
  <path
     class="cls-1"
     d="M50.24,52.69a19.6,19.6,0,0,1,.89,3l7.23-6.17-9.5.38A18.68,18.68,0,0,1,50.24,52.69Z"
     transform="translate(-8.68 -33.36)"
     id="path10" />
  <path
     class="cls-1"
     d="M47.24,47.69l3.18-9-8,5.08A18.32,18.32,0,0,1,45,45.54,17.84,17.84,0,0,1,47.24,47.69Z"
     transform="translate(-8.68 -33.36)"
     id="path12" />
  <path
     class="cls-1"
     d="M39.87,42.71l-1.73-9.35-4.42,8.42a18.37,18.37,0,0,1,3.12.2A17.86,17.86,0,0,1,39.87,42.71Z"
     transform="translate(-8.68 -33.36)"
     id="path14" />
  <path
     class="cls-1"
     d="M28,43a18.23,18.23,0,0,1,3-.89l-6.17-7.23.38,9.49A18.64,18.64,0,0,1,28,43Z"
     transform="translate(-8.68 -33.36)"
     id="path16" />
  <path
     class="cls-1"
     d="M20.85,48.23A20.09,20.09,0,0,1,23,46L14,42.8l5.08,8A19.89,19.89,0,0,1,20.85,48.23Z"
     transform="translate(-8.68 -33.36)"
     id="path18" />
  <path
     class="cls-1"
     d="M17.3,56.38a17.74,17.74,0,0,1,.73-3L8.68,55.07l8.41,4.42A18.13,18.13,0,0,1,17.3,56.38Z"
     transform="translate(-8.68 -33.36)"
     id="path20" />
  <path
     class="cls-1"
     d="M28.65,75.19l1.73,9.34,4.42-8.41a17.3,17.3,0,0,1-3.11-.21A19,19,0,0,1,28.65,75.19Z"
     transform="translate(-8.68 -33.36)"
     id="path22" />
  <path
     class="cls-1"
     d="M40.52,74.92a18.34,18.34,0,0,1-3,.89l6.18,7.24-.38-9.5A18.16,18.16,0,0,1,40.52,74.92Z"
     transform="translate(-8.68 -33.36)"
     id="path24" />
  <path
     class="cls-1"
     d="M47.67,69.66a18.53,18.53,0,0,1-2.15,2.27l9,3.16-5.08-8A18.63,18.63,0,0,1,47.67,69.66Z"
     transform="translate(-8.68 -33.36)"
     id="path26" />
  <path
     class="cls-1"
     d="M51.22,61.52a17.86,17.86,0,0,1-.73,3l9.35-1.73L51.42,58.4A16.47,16.47,0,0,1,51.22,61.52Z"
     transform="translate(-8.68 -33.36)"
     id="path28" />
  <path
     class="cls-1"
     d="M36.32,45.37A13.74,13.74,0,1,0,47.85,61,13.73,13.73,0,0,0,36.32,45.37Z"
     transform="translate(-8.68 -33.36)"
     id="path30" />
  <path
     class="cls-1"
     d="M61.31,117.76A22.54,22.54,0,0,0,53.07,120a20.46,20.46,0,0,0-5.9,4.14,22.48,22.48,0,0,0-6.82,13.55,35.66,35.66,0,0,0,0,5.66A22.88,22.88,0,0,0,60.2,163.18a37,37,0,0,0,5.57,0,23.33,23.33,0,0,0,11.55-4.9,22.89,22.89,0,0,0,7.35-10.64,20.68,20.68,0,0,0,1.1-7.12,19.93,19.93,0,0,0-1.11-7.13,21.91,21.91,0,0,0-5.8-9.23,22.59,22.59,0,0,0-12.65-6.23A36.6,36.6,0,0,0,61.31,117.76Zm4,1c.29.28.3.46,0,.67s-.17.38.36.35.46,0,.46.17-.24.53-.4.53-.84,1.33-.85,1.84a.7.7,0,0,1-.12.4,1.75,1.75,0,0,0-.18.69c0,.62-.26,1-.57,1.06s-.33.52-.15.77.16.69-.34,1.18a2.13,2.13,0,0,1-1.4.74.43.43,0,0,0-.34.12,3.32,3.32,0,0,1-.79.49c-.68.34-1.1.7-1.1,1a.41.41,0,0,1-.15.23,3,3,0,0,0-.4.63,1.56,1.56,0,0,1-.33.52c-.15,0-.47-.29-.61-.56a5.09,5.09,0,0,1-.15-2.37,1.15,1.15,0,0,0,.12-.29,2.44,2.44,0,0,1,.37-.42c.34-.35.36-.39.22-.53s-.18-.58.1-1.16a3.06,3.06,0,0,0,.27-1.23c0-.66,0-.75-.16-.93s-.25-.17-.54-.13l-.35.06v-.35a.65.65,0,0,1,.18-.51.93.93,0,0,0,.23-.51c.06-.3.09-.35.43-.44l.59-.16c.15,0,.24-.16.29-.37a1,1,0,0,1,.18-.37c.06,0,.08-.09,0-.11s-.22,0-.4.17a2.15,2.15,0,0,1-.41.23,1.4,1.4,0,0,0-.86.58,1.88,1.88,0,0,1-.53.52,2.13,2.13,0,0,0-.57.59c-.21.38-.42.45-.6.22a.43.43,0,0,0-.29-.13.24.24,0,0,1-.21-.13c0-.07-.09-.11-.14-.08s-.09-.31,0-.4l.46-.41.36-.33-.28.06c-.17,0-.3,0-.3,0a5.58,5.58,0,0,1,.31-.71c.26-.54.36-.66.61-.74a21.57,21.57,0,0,1,3.83-.64c.44,0,.54.12.31.35s0,.11.27.08.37,0,.37.13.14.19.26-.08.13-.22.19-.12.16.07.55-.12a1.64,1.64,0,0,1,1.28-.26A1.13,1.13,0,0,1,65.26,118.75Zm-9,1a.33.33,0,0,0,.14.31.22.22,0,0,1,.13.18c0,.19-.41.45-.59.38s-.12-.08.06-.28.18-.25.15-.28-.18.07-.32.23c-.37.38-.45.35-.33-.14.08-.33.16-.45.37-.54C56.21,119.45,56.23,119.46,56.23,119.74Zm14.3.93c.07.12,0,.18-.08.28-.57.41-.55.33-.28.8s.22.42.1.46a.3.3,0,0,1-.3-.1c-.16-.14-.18-.13-.29.17s-.14.32-.18.32c-.2,0-.32-.11-.28-.27s0-.17-.08-.17-.46-.72-.38-.93.15-.14.31-.14a.35.35,0,0,0,.37-.22c0-.13.15-.23.21-.23a.31.31,0,0,0,.21-.12C70,120.37,70.39,120.46,70.53,120.67Zm-16.62,0a1.26,1.26,0,0,0-.08.23c0,.09.32,0,.48-.07s.25-.09.51,0,.34.11.34.15a1.25,1.25,0,0,1-.19.3.73.73,0,0,0-.17.59c0,.32-.16.6-.24.36a.92.92,0,0,0-.2-.28,1.09,1.09,0,0,1-.22-.53c-.06-.39-.18-.47-.27-.18s-.25.32-.9.43-.86.07-.82-.23.16-.28.54-.5.55-.24.58-.18.14.06.29-.06S54,120.5,53.91,120.72Zm2,.92c0,.28,0,.3.35.34s.49.1.41.39c-.12.53-.8.64-1.31.23a.53.53,0,0,1-.09-.8C55.56,121.28,55.88,121.21,55.86,121.64Zm-4.35.25c.11.06.1.12-.08.3s-.2.25-.11.36.08.13,0,.17-.09.06,0,.15.21,0,.6-.2.77-.41.77-.24a7.11,7.11,0,0,1-.58,1c-.49.72-.58.92-.58,1.24s0,.38-.17.38-.21,0-.23.09-.15,0-.31,0-.27-.11-.42,0-.15.13,0,.35a.56.56,0,0,0,.82.2c.12-.08.22-.19.22-.23a1.84,1.84,0,0,1,.48-.46,1.36,1.36,0,0,0,.6-.76,1.11,1.11,0,0,1,.2-.46.87.87,0,0,0,.22-.28,3.12,3.12,0,0,1,.42-.57l.29-.33.54.16.55.17-.21.19a.71.71,0,0,1-.35.2c-.3,0-.67.44-.87,1-.11.32-.23.58-.28.58s-.18.28,0,.45.14.21.05.41c-.18.39,0,.35.44-.1s.54-.66.27-.73-.23-.14-.05-.33a.59.59,0,0,0,.14-.36c0-.4,1.14-1.31,1.47-1.17a.1.1,0,0,1,.09.14c0,.06,0,.08.16,0a.62.62,0,0,1,.47.1c.22.15.23.18.18.68s0,.53.08.58a.18.18,0,0,1,.1.23.16.16,0,0,0,.1.22.63.63,0,0,1,.22.16,1,1,0,0,1-.16.79c-.16.1-.16.41,0,.47s.11.14.08.3a.43.43,0,0,0,.09.39c.14.13.13.17-.13.45s-.41.39-.53.1c-.17-.45-.44-.15-.27.31a.63.63,0,0,1,0,.49c-.13.3-.87.64-.87.41a2.4,2.4,0,0,0-.38-.52c-.27-.31-.42-.41-.57-.4s-.34-.09-.26-.33a.32.32,0,0,1,.48-.16c.08.08.24-.06.59-.43s.48-.57.46-.8a1.4,1.4,0,0,0-.49-1c-.21-.1-.46-.07-.46.08a2.46,2.46,0,0,1-.15.42c-.08.17-.23.57-.34.86l-.18.54-.42,0c-.24,0-.42.06-.42.11a1,1,0,0,0,.21.33c.26.3.16.51-.26.53a1.71,1.71,0,0,0-.47.08c-.19.06-.21,0-.14-.19a2.62,2.62,0,0,1,.23-.61.89.89,0,0,0,.13-.37,3.82,3.82,0,0,0-1.14.8,7.48,7.48,0,0,1-.75.64,2.24,2.24,0,0,0-.93,1.45c-.07.38-.07.38.58,1l.65.64-.08.47a1.85,1.85,0,0,0,0,.61c.11.28.34.07.52-.44a1.49,1.49,0,0,1,.61-.85c.58-.46.63-.57.44-.91l-.16-.27.27-.24a1.18,1.18,0,0,0,.4-.71c.16-.61.24-.68.69-.55.27.06.37.15.41.31s.12.22.22.22.29.21.09.5-.22.62,0,.69.63-.25.76-.56.28-.23.22.48,0,1.05.25,1.31.26.45.27,1.46c0,.67,0,.71.23.74s.19.09.19.36c0,.56-.49.78-.78.36a.45.45,0,0,0-.39-.17c-.31,0-.31,0,.31-.75.19-.22.32-.44.29-.48s-.31.05-.62.21c-.54.3-.59.31-1,.21a1.32,1.32,0,0,0-.56-.05c-.17.07-.17.08,0,.19a1.41,1.41,0,0,0,.26.16c.08,0,.07.09,0,.22s-.09.22.28.43.55.61.16.71a2.54,2.54,0,0,0-.63.24c-.29.13-.41.16-.49.08a.78.78,0,0,0-.45-.1c-.33,0-.35,0-.56.49s-.26.49-.48.49a.55.55,0,0,0-.47.28,3.81,3.81,0,0,0-.69,1.34c0,.29-.05.35-.68.77s-.84.69-.84,1a1.88,1.88,0,0,0,.18.55c.21.45.24,1,.07,1s-.48-.44-.61-.88a.68.68,0,0,0-.31-.46.73.73,0,0,1-.26-.16c0-.06-.2-.1-.36-.1a.45.45,0,0,0-.44.2c-.13.2-.18.22-.79.17-.82,0-1,.1-1.25.86-.32,1.15-.12,2,.53,2.23s.83.08,1-.34a.58.58,0,0,1,.48-.43l.35-.09v.33a1.23,1.23,0,0,1-.18.59c-.34.51-.23.64.62.68l.41,0,0,.64c.06.88.14,1,1.12,1l.76,0,.37-.41c.37-.41.39-.41.69-.3a2.63,2.63,0,0,0,.46.11.44.44,0,0,1,.29.19c.12.18.19.19.73.14s.64-.08.71-.18.22-.1.22.13c0,.4,1,1.15,1.53,1.15a1.71,1.71,0,0,1,1.09,1c0,.27.13.33.85.67a3.43,3.43,0,0,0,1.15.38c.61,0,1.71.71,1.71,1.11a2.28,2.28,0,0,1-.18.53,5.43,5.43,0,0,0-.28,1.77c-.1,1.44-.15,1.58-.57,1.58a.57.57,0,0,0-.36.18.71.71,0,0,1-.32.22.46.46,0,0,0-.18.61,2.11,2.11,0,0,1-.24,1.3c-.08.06-.08.14,0,.3s.06.26-.14.42a1.68,1.68,0,0,1-.32.2c-.07,0-.07.09,0,.22.21.4,0,.92-.3.92-.12,0-.14.05-.12.22s0,.23-.11.23-.21.22,0,.34.28.2.17.31a1.6,1.6,0,0,0-.09.5c0,.4,0,.46.18.58s.23.26.28.64a1.62,1.62,0,0,0,.41.93c.38.48.34.51-.36.31a1.24,1.24,0,0,1-.78-.58,1.61,1.61,0,0,0-.39-.45s-.1-.08-.13-.17a2.2,2.2,0,0,0-.31-.5c-.19-.24-.25-.39-.22-.54s0-.23-.21-.34-.52-.61-.41-.77-.18-.56-.42-.88a1,1,0,0,1-.17-.64,2.35,2.35,0,0,0-.3-1,8,8,0,0,1-.5-1.41c-.38-1.6-.68-2.08-1.67-2.64a4.08,4.08,0,0,1-1.44-1.29A4,4,0,0,0,50,150c-.32-.29-.34-.32-.29-.72a1.67,1.67,0,0,0-.08-.8c-.13-.37-.13-.4.09-.73.34-.52.4-.73.31-1.08s-.48-.77-.63-.77-.08.08-.08.18-.05.15-.67-.16a2.36,2.36,0,0,1-1-.78,1.87,1.87,0,0,0-1-.69,9.55,9.55,0,0,0-1.18-.39,5.18,5.18,0,0,1-1.8-.67c-.36-.22-.43-.31-.49-.61a3.45,3.45,0,0,0-.46-1L42,140.52c-.62-1.06-.63-.68,0,.77.27.64.27.89,0,.58a3.85,3.85,0,0,1-.7-1.34.53.53,0,0,0-.06-.31c-.33-.4-.27-1.9.17-4.09a21.94,21.94,0,0,1,4.36-9.36A25.76,25.76,0,0,1,48.32,124l.24-.18.13.31c.14.32.42.55.62.48s.1-.16.08-.35a.38.38,0,0,1,.18-.45c.24-.16.39-.74.25-.91s.16-.26.65-.6C51.24,121.78,51.29,121.76,51.51,121.89Zm24,.4c.17.13.17.14,0,.47a1.35,1.35,0,0,0-.1.87c.11.87.6,1.24,1.86,1.43.49.08.54,0,.19-.55a1.2,1.2,0,0,1-.22-.6c0-.26,0-.26.2-.09a6.43,6.43,0,0,1,1.41,1.5c.1.21.17.29.17.19s0-.14.13-.05a.41.41,0,0,1,.14.23c0,.07,0,.11.08.11a11.72,11.72,0,0,1,1.87,2.29,21.78,21.78,0,0,1,3.81,11.58,19.29,19.29,0,0,1-.24,4l-.06.25,0-.22a1.38,1.38,0,0,1,0-.36,3.31,3.31,0,0,0-.19-.62c-.12-.27-.27-.64-.34-.83-.15-.36-.33-.51-.64-.51-.12,0-.18,0-.18-.17s-.31-.57-.81-.86a2,2,0,0,0-1.25-.24c-.57,0-.8,0-.87-.1a.89.89,0,0,0-.54-.13,1.69,1.69,0,0,1-1.2-.45.64.64,0,0,0-.29-.19c-.23,0,.06.54.42.78.2.12.35.28.35.35s.2.23.56.07.57-.17.73.14a.8.8,0,0,0,.36.35c.47.18.1,1-.69,1.61a9.64,9.64,0,0,1-2.23,1.2,2.17,2.17,0,0,0-.48.17c-.12.1-.13.13,0,.31s.17.19.4.14a2.72,2.72,0,0,1,.6-.08.92.92,0,0,0,.49-.17c.42-.38.39.37,0,1a11.21,11.21,0,0,1-1.64,2.11,6.21,6.21,0,0,0-.85,1.06,3,3,0,0,0,0,.85,2.67,2.67,0,0,1,0,1.57,4.7,4.7,0,0,1-.72.79c-.51.48-.59.59-.54.76.17.56.15.64-.21,1a1.14,1.14,0,0,0-.37.51,5,5,0,0,1-1.14,1.56,3.22,3.22,0,0,1-1.45.47c-.37,0-.53-.17-.53-.55a2.29,2.29,0,0,0-.23-.7,8.73,8.73,0,0,1-.41-1.25,9.56,9.56,0,0,0-.36-1.18,1.68,1.68,0,0,1,.11-1.58c.17-.23.19-.32.1-.5a1.25,1.25,0,0,1,0-.56c0-.31,0-.39-.41-.91s-.66-1-.53-1.39a1.5,1.5,0,0,0,0-.86c0-.09-.16-.15-.37-.15a1.68,1.68,0,0,1-.7-.23l-.4-.23-.32.2c-.28.17-.47.21-1.33.23l-1,0-.22-.25a.89.89,0,0,0-.42-.29c-.15,0-.27-.13-.39-.39a1.63,1.63,0,0,0-.46-.57c-.37-.25-.46-.57-.41-1.47a4.4,4.4,0,0,0,0-1c-.08-.28-.05-.39.28-1a2.61,2.61,0,0,1,.73-1,1,1,0,0,0,.43-.55,3.43,3.43,0,0,1,.45-.79c.49-.62.52-.93.16-1.19s-.49-.38-.44-.84a3.24,3.24,0,0,1,.21-.76c.16-.32.18-.33.78-.38s.65-.1.73-.22c.22-.3.15-.56-.23-.81s-.46-.39-.08-.39.56-.19,1-.61a.39.39,0,0,0,.12-.35c0-.15,0-.23.2-.33a3.43,3.43,0,0,0,.66-.57c.37-.39.42-.49.42-.85a.86.86,0,0,1,.08-.45c.06,0,.09.09.09.3a.74.74,0,0,0,.18.54c.22.22.25.22,1.08,0s1-.35,1-.79c0-.26,0-.31.25-.33s.23-.08.22-.21c-.09-.53-.09-.53.36-.54s.71-.15.54-.31a2,2,0,0,0-.64-.14c-1-.11-1.17-.44-.81-1.28.21-.48.2-.74,0-.79s-.57.75-.78,1.47a.6.6,0,0,0,.08.68c.22.37.23.49,0,.71a1.82,1.82,0,0,0-.29.58c-.12.38-.18.42-.43.45s-.28,0-.24-.12a1.77,1.77,0,0,0-.41-1,.43.43,0,0,0-.18.14.57.57,0,0,1-.56.25c-.18-.06-.42-.68-.42-1.06s.11-.46.63-.78a1.75,1.75,0,0,0,.54-.68,5.32,5.32,0,0,0,.48-1.67,2.71,2.71,0,0,1,1.72-1.26c.51,0,.73,0,.73.24s.31.33.9.41a1.13,1.13,0,0,1,1,.75c.27.53.55.63.45.16s-.1-.82.06-.85.19,0,.25.19c.11.32.2.3.66-.12.26-.25.41-.32.47-.26s.15.07.28,0a.93.93,0,0,1,.37-.1c.15,0,.19,0,.16-.25s0-.24-.53-.24a1.16,1.16,0,0,1-.62-.11.51.51,0,0,0-.32-.11c-.26,0-.42-.36-.35-.81a3.56,3.56,0,0,0,0-.84,1.14,1.14,0,0,1,.07-.86C75.19,122.13,75.26,122.1,75.52,122.29Zm-11.31,5.43h.62v.34c0,.61-.5.92-1.15.76-.37-.09-.39-.11-.48-.53s0-.74.21-.66A4,4,0,0,0,64.21,127.72ZM66.72,131c.06.19.07.29,0,.36s0,.21.19.49a2,2,0,0,1,.28.45.83.83,0,0,0,.17.27c.17.22.19.71,0,.72l-.28,0a1.13,1.13,0,0,0-.49.32c-.46.47-.53.42-.47-.28a1.52,1.52,0,0,1,.24-.79c.24-.26.23-.37-.09-.64a.72.72,0,0,1-.12-1C66.37,130.63,66.6,130.66,66.72,131ZM66,132a1.39,1.39,0,0,1-.24,1.05c-.33.33-.53.17-.54-.43,0-.44,0-.46.31-.58S66,131.85,66,132Zm-16.29,8.85c0,.07-.09.13-.13.13s-.08-.06-.08-.13a.13.13,0,0,1,.13-.13C49.67,140.7,49.7,140.75,49.67,140.83Zm-.15.78c0,.06,0,0,0-.11s0-.17,0-.12A.45.45,0,0,1,49.52,141.61Zm.66,0c.13.34,0,.33-.17,0s-.15-.3,0-.26A.47.47,0,0,1,50.18,141.66Zm-.8.48.78.38c.4.16.33.32-.15.32a.73.73,0,0,1-.61-.19,1.32,1.32,0,0,0-1.06-.44c-.46,0-.47-.12,0-.26S48.76,141.83,49.38,142.14Zm2.24.89.2.21-.45.06c-.65.08-.87.08-1,0s-.11-.11.08-.27A1,1,0,0,1,51.62,143Zm.82.16c0,.05,0,.09,0,.09l-.3.06c-.21,0-.21,0-.05-.09S52.36,143.07,52.44,143.19Zm-2.63.17c0,.1-.23.2-.3.13s0-.21.13-.21S49.81,143.32,49.81,143.36Zm3.66.47c0,.16,0,.17-.13.08s-.11-.27,0-.27S53.47,143.73,53.47,143.83Zm7.25,5.29c0,.08,0,.13-.08.13a.13.13,0,0,1-.13-.13c0-.07,0-.13.08-.13S60.69,149.05,60.72,149.12Zm17.76,1.43a13.5,13.5,0,0,1-1,2.7c-.16.17-.53.09-.73-.18s-.17-.23,0-.54a4.88,4.88,0,0,0,.34-.72c.1-.26.22-.42.31-.43s.5-.45.85-1a1.37,1.37,0,0,1,.21-.28A1.71,1.71,0,0,1,78.48,150.55Zm-19.34,10.6c-.17.13-.32.11-.32-.05s.1-.08.25-.08S59.3,161,59.14,161.15Z"
     transform="translate(-8.68 -33.36)"
     id="path32" />
  <path
     class="cls-1"
     d="M57.45,120.23a.23.23,0,0,0,.07.23c.09.08.13.05.16-.13S57.53,120,57.45,120.23Z"
     transform="translate(-8.68 -33.36)"
     id="path34" />
  <path
     class="cls-1"
     d="M47,125.63c0,.23,0,.27.21.27s.34-.08.18-.32S47,125.3,47,125.63Z"
     transform="translate(-8.68 -33.36)"
     id="path36" />
  <path
     class="cls-1"
     d="M48.81,134.23c-.13.09-.14.13,0,.17a.28.28,0,0,0,.33-.23C49.1,134.07,49,134.09,48.81,134.23Z"
     transform="translate(-8.68 -33.36)"
     id="path38" />
  <path
     class="cls-1"
     d="M48.28,134.25c-.09,0-.16.08-.16.13s.14.1.27-.06.1-.12.08-.12Z"
     transform="translate(-8.68 -33.36)"
     id="path40" />
  <path
     class="cls-1"
     d="M49.36,134.79a1.65,1.65,0,0,0,.09.68c.11.1.26-.13.29-.43s0-.28-.17-.3S49.37,134.74,49.36,134.79Z"
     transform="translate(-8.68 -33.36)"
     id="path42" />
  <path
     class="cls-1"
     d="M48.39,135.58a1.39,1.39,0,0,0-.09.41c0,.3.24,0,.29-.33S48.51,135.25,48.39,135.58Z"
     transform="translate(-8.68 -33.36)"
     id="path44" />
  <path
     class="cls-1"
     d="M73.61,127.17a.78.78,0,0,0-.37.18.88.88,0,0,0,.2.82c.22.23.32.11.17-.17s-.1-.25,0-.33a.13.13,0,0,1,.22,0c.07.07.12,0,.22-.14C74.27,127.07,74.19,127,73.61,127.17Z"
     transform="translate(-8.68 -33.36)"
     id="path46" />
  <path
     class="cls-1"
     d="M74.65,134.34a.3.3,0,0,0,.08.3c.17.19.17.29,0,.47s-.61.2-.72,0-.31-.09-.57.27c-.14.18-.15.27-.07.41s.14.17.35.1a2.29,2.29,0,0,0,.46-.17c.16-.09.26-.08.62.08.73.31,1.25.22,1.25-.23q0-.19-.27-.3a1.18,1.18,0,0,1-.76-.7C74.93,134.25,74.73,134.14,74.65,134.34Z"
     transform="translate(-8.68 -33.36)"
     id="path48" />
  <path
     class="cls-1"
     d="M70,135.33a1.37,1.37,0,0,0,.75.58c.59.26.28-.22-.38-.56C70,135.13,69.93,135.13,70,135.33Z"
     transform="translate(-8.68 -33.36)"
     id="path50" />
  <path
     class="cls-1"
     d="M69.07,136c0,.06-.18.09-.51.06-.49,0-.52,0-.85.33a2.18,2.18,0,0,0-.43.68c-.09.37-.31.58-.78.8-.2.09-.27.16-.17.16a2.15,2.15,0,0,0,.71-.27,2.82,2.82,0,0,1,1.56-.32c.72,0,1.05,0,1.12.06a1.14,1.14,0,0,1,.1.57v.46l.32,0a1.26,1.26,0,0,1,.53.23,1.69,1.69,0,0,0,.8.5c.11,0,.14-.08.11-.36s0-.36.1-.41a4.47,4.47,0,0,1,1,.18c1,.28,1.3.29,1.76.06s.71-.48.71-.94c0-.22,0-.4,0-.4l-.5.18a1.26,1.26,0,0,1-1.44-.22,1.13,1.13,0,0,1-.45-.65c-.1-.41-.19-.45-.45-.26s-.16.13,0,.25c.43.34.48.42.44.6s-.12.19-.44.19-.39,0-.39-.09a1.66,1.66,0,0,0-.68-.71.14.14,0,0,0-.12.15c0,.26-.46.83-.66.83-.42,0-.57-.48-.19-.57.18,0,.22-.12.22-.32s-.06-.3-.28-.41a5.68,5.68,0,0,1-.51-.32C69.38,135.87,69.07,135.83,69.07,136Zm.26.58c0,.35-.11.45-.3.25a.42.42,0,0,1,0-.58C69.12,136,69.33,136.18,69.33,136.56Z"
     transform="translate(-8.68 -33.36)"
     id="path52" />
  <path
     class="cls-1"
     d="M75,139.93a1.79,1.79,0,0,0,.49,1.19,4.62,4.62,0,0,1,.5,1c.35,1,1.12,1.72,1.12,1.12a2.28,2.28,0,0,0-.48-1.14,2.35,2.35,0,0,1-.33-.59,6.41,6.41,0,0,0-.4-.74,2.22,2.22,0,0,1-.31-.55,1,1,0,0,0-.47-.5S75,139.81,75,139.93Z"
     transform="translate(-8.68 -33.36)"
     id="path54" />
  <path
     class="cls-1"
     d="M97.61,48.06a35.22,35.22,0,0,0-3,2.85c-2.33,2.34-2.73,2.77-2.8,3-.18.62-.31.45,4,4.75s4.15,4.16,4.75,4c.22-.07.47-.28,1.23-1l1-1,.55.56.56.56-1,1-1,1,.25.09a9.42,9.42,0,0,1,4.17,3.1,11.74,11.74,0,0,1,1.2,2.27l.08.25,1.23-1.23L110.07,67l.56.56.56.56-1.2,1.2c-1,1-1.2,1.26-1.28,1.49-.17.61-.31.44,4,4.74s4.13,4.17,4.74,4c.24-.08.66-.47,3.06-2.86s2.79-2.83,2.87-3.07c.17-.61.31-.45-4-4.74s-4.14-4.16-4.74-4c-.22.07-.47.28-1.24,1l-1,1-.55-.56-.56-.56.53-.54a11.17,11.17,0,0,0,.74-.88A2.08,2.08,0,0,0,113,62.7c0-.13,0-.21.23-.48a2.84,2.84,0,0,0-.17-4,2.81,2.81,0,0,0-1.55-.78,2.84,2.84,0,0,0-2.36.73c-.25.25-.27.25-.5.19a2,2,0,0,0-1.32.22A5.37,5.37,0,0,0,106,59.68l-.87.84-.55-.55-.56-.56,1.2-1.2c1-1,1.2-1.26,1.27-1.49.18-.6.31-.45-3.91-4.69-2.61-2.61-3.93-3.89-4.1-4A.88.88,0,0,0,97.61,48.06Zm1.2,3.19.74.74-.74.74-.74.74-.76-.76L96.55,52l.73-.72A9.79,9.79,0,0,1,98,50.5S98.41,50.84,98.81,51.25Zm-2.24,2.24.74.74-.74.75-.74.73L95.07,55l-.76-.76.73-.73c.39-.39.73-.72.75-.72S96.16,53.08,96.57,53.49Zm4.47,0,.72.73-.74.74-.74.74-.74-.74-.75-.74.73-.73c.4-.39.74-.72.76-.72S100.64,53.08,101,53.47Zm2.22,3.71-.74.74-.76-.76-.76-.75.74-.74.75-.75.76.76.75.76Zm-4.47-1.47.73.73-.75.74-.73.74-.74-.74-.75-.74.73-.73c.39-.39.74-.72.76-.72S98.4,55.32,98.79,55.71ZM101,59.42l-.74.75-.73-.73a7.19,7.19,0,0,1-.72-.79,6.66,6.66,0,0,1,.7-.77l.71-.72.76.76.76.76Zm14.68,8.71.74.74-.75.75-.74.73-.76-.75-.75-.76.72-.73c.4-.39.74-.72.76-.72S115.29,67.72,115.7,68.13Zm-2.25,2.24.74.74-.7.71a6.07,6.07,0,0,1-.78.71,5.94,5.94,0,0,1-.79-.73l-.73-.72.73-.73a8.64,8.64,0,0,1,.76-.72Zm4.47,0,.72.73-.74.75-.74.73-.74-.73-.74-.75.72-.73c.4-.39.74-.72.76-.72S117.52,70,117.92,70.35Zm2.22,3.71-.74.75-.76-.76-.75-.76.74-.74.74-.74.76.75.76.76Zm-4.46-1.46.72.72-.74.75-.74.74-.74-.74-.74-.75.72-.72c.4-.4.74-.73.76-.73S115.28,72.2,115.68,72.6Zm2.22,3.7-.74.75-.76-.76-.76-.76.74-.74.75-.74.76.76.75.75Z"
     transform="translate(-8.68 -33.36)"
     id="path56" />
  <path
     class="cls-1"
     d="M96.37,63.86A3.59,3.59,0,0,0,94,65a2.63,2.63,0,0,0,.1,1.81,15,15,0,0,0,2.08,3.75l.4.55.38-.68c.21-.37.38-.71.39-.74a2.23,2.23,0,0,0-.32-.46,6.61,6.61,0,0,1-1.4-2.34c0-.6,1.06-.33,2.55.65a22.08,22.08,0,0,1,5.5,5.45c1,1.49,1.32,2.67.74,2.67a5,5,0,0,1-1.94-1.09c-.46-.34-.86-.63-.88-.63a13.75,13.75,0,0,0-1.27.75c-.1.08.09.23,1.13.93,2.14,1.43,4.1,2.09,4.85,1.65a3.18,3.18,0,0,0,1-1.46c.72-2.19.06-5.34-1.62-7.72a12.79,12.79,0,0,0-2.28-2.31A9.86,9.86,0,0,0,96.37,63.86Z"
     transform="translate(-8.68 -33.36)"
     id="path58" />
  <path
     class="cls-1"
     d="M99.2,70.43c-.09.12-.54.86-1,1.64l-.86,1.44s-.07,0-.12,0a1.33,1.33,0,0,0-.43-.15A1.5,1.5,0,0,0,95,74.84a1.48,1.48,0,0,0,1.54,1.54,1.51,1.51,0,0,0,1.45-2c0-.13-.07-.25,0-.26s.68-.44,1.5-1,1.54-1,1.6-1c.27-.23.08-.78-.46-1.32S99.48,70.06,99.2,70.43Z"
     transform="translate(-8.68 -33.36)"
     id="path60" />
  <path
     class="cls-1"
     d="M92.29,74.38a3.79,3.79,0,0,0-.2,2.31,3.38,3.38,0,0,0,3,2.63,4.89,4.89,0,0,0,1.7-.14A.38.38,0,0,0,97,78.6c-.09-.16-.13-.17-.81-.21a3.27,3.27,0,0,1-1.88-.56A3.2,3.2,0,0,1,93,75.09c0-.51,0-.58-.15-.67A.45.45,0,0,0,92.29,74.38Z"
     transform="translate(-8.68 -33.36)"
     id="path62" />
  <path
     class="cls-1"
     d="M89.94,74.56a7.32,7.32,0,0,0-.13,3.14,4.85,4.85,0,0,0,2.58,3.37,4.91,4.91,0,0,0,2.61.58,5.91,5.91,0,0,0,1.42-.12l.46-.13,0-.31c0-.44-.11-.52-.78-.44a5.79,5.79,0,0,1-2-.18,4.87,4.87,0,0,1-2.9-2.41,4.63,4.63,0,0,1-.54-2.5,4.61,4.61,0,0,0-.06-1C90.53,74.4,90,74.42,89.94,74.56Z"
     transform="translate(-8.68 -33.36)"
     id="path64" />
  <line
     class="cls-2"
     x1="98.71"
     y1="89.43"
     x2="113.32"
     y2="104.03"
     id="line66" />
  <polygon
     class="cls-3"
     points="36.53 78.2 40.28 86.15 37.52 77.8 31 61.5 27.25 53.55 30.01 61.9 36.53 78.2"
     id="polygon68" />
  <polygon
     class="cls-3"
     points="41.52 76.12 45.28 84.07 42.51 75.72 35.99 59.42 32.24 51.47 35.01 59.82 41.52 76.12"
     id="polygon70" />
  <polygon
     class="cls-3"
     points="47.55 74.73 51.3 82.69 48.54 74.34 42.02 58.03 38.27 50.08 41.03 58.43 47.55 74.73"
     id="polygon72" />
  <polygon
     class="cls-3"
     points="62.2 72.12 58.5 80.09 63.14 72.62 71.49 57.18 75.19 49.2 70.55 56.67 62.2 72.12"
     id="polygon74" />
  <polygon
     class="cls-3"
     points="67 74.62 63.29 82.6 67.93 75.13 76.28 59.68 79.99 51.71 75.34 59.17 67 74.62"
     id="polygon76" />
  <polygon
     class="cls-3"
     points="71.92 78.36 68.21 86.34 72.86 78.87 81.21 63.42 84.91 55.45 80.27 62.91 71.92 78.36"
     id="polygon78" />
  <path
     class="cls-1"
     d="M167.58,118a23,23,0,0,0-8.25,2.26,20.94,20.94,0,0,0-5.9,4.14,22.52,22.52,0,0,0-6.81,13.55,34.5,34.5,0,0,0,0,5.66,22.91,22.91,0,0,0,19.84,19.81,37.12,37.12,0,0,0,5.58,0,23.37,23.37,0,0,0,11.55-4.9,22.89,22.89,0,0,0,7.35-10.64,20.89,20.89,0,0,0,1.1-7.12,20.19,20.19,0,0,0-1.11-7.13,21.82,21.82,0,0,0-5.8-9.22,22.57,22.57,0,0,0-12.65-6.24A36.66,36.66,0,0,0,167.58,118Zm3.95,1c.28.27.3.45.05.66s-.17.38.36.35.45,0,.45.17-.23.53-.39.53-.85,1.33-.86,1.84a.71.71,0,0,1-.11.4,1.75,1.75,0,0,0-.18.69c0,.62-.27,1-.57,1.06s-.33.52-.15.77.16.69-.34,1.18a2.13,2.13,0,0,1-1.4.74.4.4,0,0,0-.34.13,3.85,3.85,0,0,1-.79.48c-.69.34-1.11.7-1.11,1a.39.39,0,0,1-.14.23,2.55,2.55,0,0,0-.4.64,1.59,1.59,0,0,1-.33.51c-.15,0-.47-.29-.62-.56a5.22,5.22,0,0,1-.15-2.37,1.35,1.35,0,0,0,.13-.29,2.69,2.69,0,0,1,.36-.42c.35-.35.37-.39.23-.53s-.18-.58.09-1.16a3.23,3.23,0,0,0,.28-1.23c0-.66,0-.75-.16-.92s-.25-.18-.54-.14l-.35.06v-.35a.63.63,0,0,1,.18-.51,1,1,0,0,0,.23-.51c0-.3.09-.35.43-.44l.59-.16c.15,0,.24-.16.29-.37a.74.74,0,0,1,.18-.37c.05,0,.08-.09,0-.11s-.21,0-.4.17a1.88,1.88,0,0,1-.41.23,1.4,1.4,0,0,0-.85.58,1.8,1.8,0,0,1-.54.52,2.24,2.24,0,0,0-.56.59c-.21.38-.42.45-.61.23a.38.38,0,0,0-.28-.14.23.23,0,0,1-.21-.13c0-.07-.09-.11-.14-.08s-.1-.31,0-.4l.46-.41.36-.32-.29.05c-.16,0-.29,0-.29,0a5.58,5.58,0,0,1,.31-.71c.26-.54.36-.66.61-.74a21.57,21.57,0,0,1,3.83-.64c.43,0,.53.12.31.35s-.05.11.27.08.37,0,.37.13.14.19.26-.08.12-.22.19-.12.16.07.55-.11a1.59,1.59,0,0,1,1.27-.27A1.16,1.16,0,0,1,171.53,119Zm-9,1a.36.36,0,0,0,.13.32.2.2,0,0,1,.14.17c0,.19-.41.45-.59.38s-.13-.08,0-.28.19-.25.15-.27-.18.06-.32.22c-.36.38-.44.35-.32-.14.08-.33.16-.45.37-.54S162.5,119.65,162.5,119.93Zm14.29.93c.08.12.06.18-.08.28-.57.41-.54.34-.27.8s.22.42.1.46a.33.33,0,0,1-.31-.09c-.16-.15-.18-.14-.28.17s-.14.32-.18.32c-.21,0-.32-.12-.29-.28s0-.17-.08-.17-.45-.72-.37-.93.15-.14.31-.14a.35.35,0,0,0,.37-.22c0-.13.15-.23.2-.23a.35.35,0,0,0,.22-.12C176.26,120.56,176.66,120.65,176.79,120.86Zm-16.61,0a1.63,1.63,0,0,0-.09.23c0,.1.32,0,.48-.06s.25-.1.51,0,.35.11.35.15a1.1,1.1,0,0,1-.2.3.81.81,0,0,0-.17.59c0,.32-.16.6-.24.36a.81.81,0,0,0-.19-.28,1.2,1.2,0,0,1-.23-.52c-.06-.4-.17-.48-.26-.19s-.25.32-.9.43-.86.07-.82-.23.16-.28.54-.5.54-.24.58-.17.13.05.28-.07C160.13,120.69,160.31,120.69,160.18,120.91Zm1.94.92c0,.28,0,.3.35.34s.5.1.42.39c-.12.53-.8.64-1.32.23a.54.54,0,0,1-.09-.8C161.83,121.48,162.15,121.4,162.12,121.83Zm-4.35.25c.11.06.1.12-.08.31s-.19.24-.1.35.08.14,0,.17-.09.06,0,.15.2.06.6-.2.76-.41.76-.24a6.09,6.09,0,0,1-.58,1c-.49.72-.58.93-.58,1.24s0,.38-.16.38a.31.31,0,0,0-.24.09s-.14,0-.3,0-.28-.11-.42,0-.15.13,0,.35a.57.57,0,0,0,.82.2c.13-.08.23-.19.23-.23a1.84,1.84,0,0,1,.48-.46,1.29,1.29,0,0,0,.59-.76,1.23,1.23,0,0,1,.21-.46.87.87,0,0,0,.21-.28,2.79,2.79,0,0,1,.42-.56l.3-.34.54.16.54.17-.2.19a.75.75,0,0,1-.35.2c-.3,0-.68.44-.87,1-.11.32-.23.58-.28.58s-.19.28,0,.45.15.21.06.41c-.18.39,0,.36.43-.1s.55-.66.27-.73-.22-.14,0-.33a.58.58,0,0,0,.13-.36c0-.4,1.14-1.31,1.48-1.17.08,0,.11.1.08.14s0,.08.17,0a.6.6,0,0,1,.46.09c.23.15.24.18.18.68s0,.54.08.58a.19.19,0,0,1,.11.23.17.17,0,0,0,.1.23.42.42,0,0,1,.21.15.92.92,0,0,1-.16.79c-.16.1-.16.41,0,.47s.11.14.08.3a.43.43,0,0,0,.09.39c.13.13.13.17-.13.45s-.41.4-.53.1c-.18-.45-.44-.15-.28.31a.59.59,0,0,1,0,.49c-.14.3-.88.64-.88.41a2.37,2.37,0,0,0-.37-.51c-.27-.32-.42-.42-.57-.4s-.34-.1-.26-.33.35-.3.48-.16.24-.07.59-.44.48-.57.45-.79a1.39,1.39,0,0,0-.48-1c-.21-.1-.46-.06-.46.08a2.46,2.46,0,0,1-.15.42c-.08.18-.24.57-.34.86l-.18.54-.42,0c-.24,0-.43.07-.43.11a1,1,0,0,0,.22.33c.25.3.16.51-.26.53a2.09,2.09,0,0,0-.47.08c-.19.06-.21,0-.15-.19a4,4,0,0,1,.23-.61,1,1,0,0,0,.14-.37,3.7,3.7,0,0,0-1.14.8,6.37,6.37,0,0,1-.75.64,2.22,2.22,0,0,0-.94,1.45c-.06.38-.06.38.58,1l.65.64-.08.48a2.6,2.6,0,0,0,0,.6c.11.28.34.07.52-.43a1.53,1.53,0,0,1,.62-.86c.58-.46.63-.57.43-.91l-.16-.27.28-.24a1.24,1.24,0,0,0,.4-.71c.15-.61.24-.68.69-.55.26.06.36.15.41.31s.11.22.22.22.29.21.09.5-.22.62-.05.69.64-.25.76-.56.29-.23.23.49,0,1,.24,1.31.26.44.28,1.45c0,.67,0,.71.22.74s.2.09.2.36c0,.56-.49.78-.78.36a.49.49,0,0,0-.4-.17c-.31,0-.31,0,.32-.75.18-.22.32-.43.29-.48s-.31,0-.62.21c-.55.3-.59.31-1,.21a1.3,1.3,0,0,0-.56-.05c-.17.07-.17.08,0,.19a1.43,1.43,0,0,0,.27.16c.07,0,.06.09,0,.23s-.08.21.29.42.55.61.16.71a2.59,2.59,0,0,0-.64.24c-.28.13-.41.16-.49.08a.83.83,0,0,0-.44-.1c-.33,0-.35,0-.56.49s-.26.49-.48.49a.56.56,0,0,0-.48.29,3.81,3.81,0,0,0-.68,1.33c0,.29-.06.35-.68.77s-.84.69-.84,1a1.88,1.88,0,0,0,.18.55c.2.46.24,1,.06,1s-.47-.44-.6-.88c-.08-.25-.19-.41-.32-.45a1,1,0,0,1-.25-.17c0-.06-.2-.1-.36-.1a.47.47,0,0,0-.45.2c-.12.2-.17.22-.78.17-.82,0-1,.1-1.26.86-.32,1.15-.11,2,.54,2.24s.83.08,1-.35a.55.55,0,0,1,.48-.43l.35-.09v.33a1.36,1.36,0,0,1-.18.59c-.34.52-.23.64.62.69l.4,0,0,.64c.06.89.14,1,1.12,1h.76l.37-.41c.37-.41.38-.41.69-.3a2.63,2.63,0,0,0,.46.11.56.56,0,0,1,.29.19c.11.18.18.19.73.15.4,0,.64-.09.7-.19s.22-.1.22.13c0,.4,1,1.15,1.54,1.15a1.72,1.72,0,0,1,1.08,1c.06.27.14.33.86.67a3.47,3.47,0,0,0,1.14.38c.62,0,1.71.72,1.71,1.11a2.28,2.28,0,0,1-.18.53,5.53,5.53,0,0,0-.27,1.77c-.1,1.44-.15,1.58-.57,1.58a.57.57,0,0,0-.36.18.92.92,0,0,1-.32.23.45.45,0,0,0-.19.6,2.1,2.1,0,0,1-.23,1.3c-.08.06-.09.14,0,.31s.07.25-.13.41a2.06,2.06,0,0,1-.32.2c-.07,0-.07.09,0,.22.2.4,0,.92-.3.92-.12,0-.15.06-.12.23s0,.22-.12.22-.2.22.06.34.27.2.17.31a1.67,1.67,0,0,0-.09.5c0,.4,0,.46.18.59s.23.25.28.63a1.67,1.67,0,0,0,.4.93c.39.49.35.51-.35.31a1.22,1.22,0,0,1-.78-.58,2.05,2.05,0,0,0-.39-.45c-.05,0-.1-.08-.14-.17a2.06,2.06,0,0,0-.31-.5c-.18-.24-.25-.39-.21-.54s0-.23-.21-.34-.52-.61-.41-.77-.18-.56-.42-.88a1,1,0,0,1-.17-.64,2.25,2.25,0,0,0-.31-1,8,8,0,0,1-.49-1.41c-.38-1.6-.68-2.08-1.67-2.64a4.11,4.11,0,0,1-1.45-1.29,4,4,0,0,0-.57-.66c-.33-.29-.34-.32-.29-.71a1.69,1.69,0,0,0-.08-.81c-.13-.37-.13-.4.09-.73.34-.51.4-.73.3-1.08s-.47-.77-.62-.77-.08.08-.08.18-.06.15-.67-.16a2.46,2.46,0,0,1-1-.78,1.78,1.78,0,0,0-1-.68,7.93,7.93,0,0,0-1.19-.4,5.5,5.5,0,0,1-1.8-.66c-.35-.23-.43-.32-.48-.62a3.75,3.75,0,0,0-.46-1c-.23-.36-.56-.91-.75-1.23-.63-1.06-.63-.68,0,.78.27.63.27.88,0,.58a3.88,3.88,0,0,1-.7-1.35.46.46,0,0,0-.07-.31c-.33-.39-.26-1.9.17-4.08A22.16,22.16,0,0,1,152,127a27.93,27.93,0,0,1,2.61-2.75l.24-.18.14.32c.13.31.42.54.61.47s.1-.16.08-.35,0-.34.19-.45a.87.87,0,0,0,.24-.91c-.05-.06.16-.26.65-.6C157.51,122,157.56,122,157.77,122.08Zm24,.4c.16.13.16.15,0,.48a1.39,1.39,0,0,0-.09.86c.11.87.59,1.24,1.86,1.43.49.08.53,0,.19-.55a1.22,1.22,0,0,1-.23-.59c0-.27,0-.27.21-.1a6.66,6.66,0,0,1,1.41,1.5c.09.21.17.29.17.19s0-.14.13,0a.39.39,0,0,1,.13.23c0,.07,0,.12.08.11a11.26,11.26,0,0,1,1.88,2.29,21.78,21.78,0,0,1,3.81,11.58,20,20,0,0,1-.24,4l-.06.25-.06-.22a1.86,1.86,0,0,1,0-.36,3.06,3.06,0,0,0-.2-.62l-.34-.83c-.14-.36-.33-.51-.63-.51-.12,0-.19,0-.19-.17s-.3-.57-.81-.85a1.82,1.82,0,0,0-1.24-.24c-.58,0-.81,0-.88-.11a.83.83,0,0,0-.53-.13,1.67,1.67,0,0,1-1.21-.45.57.57,0,0,0-.28-.19c-.23,0,.06.55.42.78.19.12.34.28.34.35s.21.23.57.07.57-.16.73.14a.93.93,0,0,0,.35.36c.48.17.11,1-.68,1.6a9.64,9.64,0,0,1-2.23,1.2,2.17,2.17,0,0,0-.48.17c-.13.1-.14.14,0,.31s.17.19.39.14a3.61,3.61,0,0,1,.61-.08.92.92,0,0,0,.49-.17c.42-.38.38.37-.06,1a10.89,10.89,0,0,1-1.64,2.11,5.56,5.56,0,0,0-.84,1.07,3.25,3.25,0,0,0,0,.84,2.61,2.61,0,0,1,0,1.57,5.43,5.43,0,0,1-.73.79c-.5.48-.58.59-.53.76.17.56.15.64-.22,1a1.2,1.2,0,0,0-.36.52,5.23,5.23,0,0,1-1.14,1.56,3.34,3.34,0,0,1-1.45.46c-.37,0-.53-.17-.53-.55a2.62,2.62,0,0,0-.23-.7,7.64,7.64,0,0,1-.41-1.25,10.14,10.14,0,0,0-.36-1.18,1.66,1.66,0,0,1,.11-1.58c.17-.23.19-.32.1-.5a1.23,1.23,0,0,1-.05-.56c.06-.31,0-.39-.4-.91s-.67-1-.53-1.39a1.49,1.49,0,0,0,0-.86c0-.09-.16-.15-.36-.15a1.77,1.77,0,0,1-.71-.23l-.39-.23-.32.2c-.29.17-.47.21-1.34.23l-1,0-.22-.25a.87.87,0,0,0-.43-.29c-.15,0-.26-.13-.38-.39a1.63,1.63,0,0,0-.46-.57c-.38-.25-.47-.57-.41-1.47a4.33,4.33,0,0,0-.06-1c-.08-.28,0-.39.29-1a2.61,2.61,0,0,1,.73-1,1,1,0,0,0,.43-.55,3.08,3.08,0,0,1,.45-.79c.48-.61.52-.93.16-1.19s-.5-.38-.44-.84a2.82,2.82,0,0,1,.21-.76c.16-.32.18-.33.78-.38.45,0,.65-.1.73-.22.22-.3.15-.56-.24-.81s-.45-.39-.08-.39.57-.19,1-.6a.42.42,0,0,0,.13-.36c0-.15,0-.23.19-.33a2.92,2.92,0,0,0,.66-.57c.38-.39.42-.49.42-.85a.83.83,0,0,1,.09-.45s.09.09.09.3a.7.7,0,0,0,.18.54c.21.22.25.22,1.08,0s1-.35,1-.79c0-.26,0-.31.25-.33s.23-.07.21-.21c-.09-.53-.09-.53.37-.54s.7-.14.54-.3a1.7,1.7,0,0,0-.64-.15c-1-.1-1.18-.43-.81-1.28.2-.48.19-.74,0-.79s-.58.75-.78,1.48a.59.59,0,0,0,.08.67c.22.37.23.49,0,.71a2,2,0,0,0-.28.58c-.13.38-.18.42-.43.45s-.29,0-.24-.12a1.84,1.84,0,0,0-.41-1,.34.34,0,0,0-.18.14.58.58,0,0,1-.56.25c-.18-.06-.42-.68-.42-1.06s.11-.46.62-.78a1.68,1.68,0,0,0,.55-.68,5.93,5.93,0,0,0,.48-1.67,2.68,2.68,0,0,1,1.72-1.26c.51,0,.73,0,.73.24s.3.33.89.41a1.14,1.14,0,0,1,1,.76c.26.52.55.62.44.15s-.1-.81.06-.85.19,0,.25.2c.12.31.21.29.66-.13.27-.25.41-.32.48-.26s.15.07.27,0a1,1,0,0,1,.38-.1c.15,0,.18,0,.16-.24s0-.25-.54-.25a1.14,1.14,0,0,1-.61-.11.61.61,0,0,0-.32-.11c-.26,0-.42-.36-.35-.81a3.15,3.15,0,0,0,0-.84,1.2,1.2,0,0,1,.07-.86C181.46,122.32,181.53,122.29,181.79,122.48Zm-11.31,5.43h.62v.34c0,.61-.5.93-1.15.77-.37-.1-.39-.12-.48-.54s-.05-.74.2-.66A4.07,4.07,0,0,0,170.48,127.91Zm2.51,3.25c.06.19.07.29,0,.36s0,.21.19.49a1.81,1.81,0,0,1,.28.46.83.83,0,0,0,.16.26c.18.23.2.71,0,.73l-.29,0a1.11,1.11,0,0,0-.48.32c-.46.47-.53.42-.47-.28a1.35,1.35,0,0,1,.24-.79c.24-.25.22-.37-.09-.64a.71.71,0,0,1-.12-1C172.63,130.83,172.86,130.85,173,131.16Zm-.77,1a1.31,1.31,0,0,1-.24,1.05c-.32.33-.52.17-.53-.42s0-.47.31-.59S172.21,132,172.22,132.17ZM155.94,141c0,.07-.09.14-.14.14s-.08-.07-.08-.14a.14.14,0,0,1,.14-.13C155.94,140.89,156,140.94,155.94,141Zm-.15.78c0,.06,0,0,0-.11s0-.17,0-.12A.88.88,0,0,1,155.79,141.8Zm.66,0c.13.34,0,.33-.17,0s-.15-.3-.06-.26A.55.55,0,0,1,156.45,141.85Zm-.81.48.79.39c.4.16.33.31-.15.31a.72.72,0,0,1-.61-.19,1.37,1.37,0,0,0-1.06-.44c-.46,0-.47-.12,0-.25S155,142,155.64,142.33Zm2.25.89.2.21-.45.06c-.65.08-.87.08-1,0s-.11-.11.08-.26A1,1,0,0,1,157.89,143.22Zm.82.16c0,.05,0,.09,0,.09l-.29.06c-.21,0-.21,0-.05-.09S158.63,143.26,158.71,143.38Zm-2.63.17c0,.1-.23.2-.3.13s-.05-.21.12-.21S156.08,143.51,156.08,143.55Zm3.66.47c0,.16,0,.17-.14.08s-.1-.27.06-.27S159.74,143.92,159.74,144Zm7.25,5.29c0,.08,0,.14-.08.14a.14.14,0,0,1-.13-.14c0-.07,0-.13.08-.13S167,149.24,167,149.31Zm17.75,1.44a12.46,12.46,0,0,1-1,2.69c-.15.18-.52.09-.72-.18s-.18-.23,0-.54a4.88,4.88,0,0,0,.34-.72c.1-.26.21-.42.3-.43s.51-.45.86-1c.1-.15.18-.28.21-.28A1.6,1.6,0,0,1,184.74,150.75ZM165.4,161.34c-.17.13-.32.11-.32-.05s.11-.08.25-.08S165.56,161.22,165.4,161.34Z"
     transform="translate(-8.68 -33.36)"
     id="path80" />
  <path
     class="cls-1"
     d="M163.72,120.42a.22.22,0,0,0,.06.23c.1.08.14,0,.16-.13S163.8,120.2,163.72,120.42Z"
     transform="translate(-8.68 -33.36)"
     id="path82" />
  <path
     class="cls-1"
     d="M153.23,125.83c0,.22,0,.26.2.26s.34-.08.18-.32S153.23,125.5,153.23,125.83Z"
     transform="translate(-8.68 -33.36)"
     id="path84" />
  <path
     class="cls-1"
     d="M155.07,134.42c-.12.1-.13.13,0,.17a.28.28,0,0,0,.33-.23C155.37,134.26,155.26,134.28,155.07,134.42Z"
     transform="translate(-8.68 -33.36)"
     id="path86" />
  <path
     class="cls-1"
     d="M154.55,134.44c-.09,0-.16.08-.16.13s.14.1.27,0,.09-.13.08-.13Z"
     transform="translate(-8.68 -33.36)"
     id="path88" />
  <path
     class="cls-1"
     d="M155.63,135a1.47,1.47,0,0,0,.09.68c.1.1.25-.13.29-.43s0-.28-.17-.3S155.64,134.93,155.63,135Z"
     transform="translate(-8.68 -33.36)"
     id="path90" />
  <path
     class="cls-1"
     d="M154.66,135.77a1.13,1.13,0,0,0-.09.41c0,.31.24,0,.28-.33S154.78,135.44,154.66,135.77Z"
     transform="translate(-8.68 -33.36)"
     id="path92" />
  <path
     class="cls-1"
     d="M179.88,127.36a.78.78,0,0,0-.38.19.88.88,0,0,0,.21.81c.21.23.32.11.17-.17s-.1-.25,0-.33.13-.08.21,0,.13,0,.23-.14C180.54,127.26,180.46,127.19,179.88,127.36Z"
     transform="translate(-8.68 -33.36)"
     id="path94" />
  <path
     class="cls-1"
     d="M180.91,134.53a.33.33,0,0,0,.08.3c.18.19.17.29,0,.47s-.61.2-.73,0-.3-.09-.57.27c-.13.18-.15.27-.07.41s.14.17.36.11a3,3,0,0,0,.45-.18c.16-.09.27-.07.63.08.73.31,1.24.22,1.24-.23,0-.13-.08-.23-.26-.3a1.16,1.16,0,0,1-.76-.7C181.2,134.44,181,134.33,180.91,134.53Z"
     transform="translate(-8.68 -33.36)"
     id="path96" />
  <path
     class="cls-1"
     d="M176.3,135.52a1.45,1.45,0,0,0,.75.58c.6.26.29-.22-.37-.56C176.24,135.32,176.2,135.32,176.3,135.52Z"
     transform="translate(-8.68 -33.36)"
     id="path98" />
  <path
     class="cls-1"
     d="M175.33,136.17c0,.07-.18.09-.5.07-.5,0-.52,0-.85.33a1.89,1.89,0,0,0-.43.67,1.22,1.22,0,0,1-.78.81c-.2.08-.27.16-.17.16a2.55,2.55,0,0,0,.71-.28,2.82,2.82,0,0,1,1.56-.32c.71,0,1,0,1.11.06a1,1,0,0,1,.11.57v.46l.31,0a1.3,1.3,0,0,1,.54.23,1.69,1.69,0,0,0,.8.5c.11,0,.13-.08.11-.35s0-.37.09-.41a3.64,3.64,0,0,1,1,.17c1,.28,1.31.29,1.77.06s.7-.48.7-.94c0-.22,0-.4,0-.4l-.5.18a1.27,1.27,0,0,1-1.44-.21,1.14,1.14,0,0,1-.45-.65c-.11-.41-.2-.46-.45-.27s-.17.13,0,.25c.43.34.48.42.43.6s-.11.19-.43.19-.39,0-.39-.09a1.72,1.72,0,0,0-.68-.71.14.14,0,0,0-.13.15c0,.26-.45.83-.66.83-.42,0-.57-.47-.18-.57.17,0,.22-.12.22-.32s-.06-.3-.29-.41a3.32,3.32,0,0,1-.5-.32C175.65,136.06,175.33,136,175.33,136.17Zm.27.58c0,.35-.12.45-.3.25a.43.43,0,0,1-.05-.58C175.39,136.16,175.6,136.37,175.6,136.75Z"
     transform="translate(-8.68 -33.36)"
     id="path100" />
  <path
     class="cls-1"
     d="M181.25,140.12a1.77,1.77,0,0,0,.48,1.19,4.19,4.19,0,0,1,.51,1c.35,1,1.11,1.72,1.11,1.12a2.2,2.2,0,0,0-.48-1.14,3.21,3.21,0,0,1-.33-.59,5.16,5.16,0,0,0-.4-.74,2.06,2.06,0,0,1-.3-.55,1,1,0,0,0-.47-.5S181.29,140,181.25,140.12Z"
     transform="translate(-8.68 -33.36)"
     id="path102" />
  <path
     class="cls-1"
     d="M185.75,45.47a35.22,35.22,0,0,0-3,2.85c-2.33,2.34-2.73,2.77-2.8,3-.18.62-.31.45,4,4.75s4.14,4.16,4.74,4c.22-.07.47-.28,1.24-1l1-1,.55.56.56.56-1,1-1,1,.25.09a9.42,9.42,0,0,1,4.17,3.1,11.74,11.74,0,0,1,1.2,2.27l.09.25L197,65.62l1.22-1.22.56.56.56.56-1.2,1.2c-1,1-1.2,1.26-1.28,1.49-.17.61-.3.45,4,4.75s4.13,4.16,4.75,4c.23-.07.66-.47,3.06-2.86s2.79-2.83,2.86-3.07c.18-.61.31-.45-4-4.74s-4.15-4.16-4.75-4c-.22.06-.47.27-1.24,1l-1,.95-.55-.56-.56-.55.53-.55a9.6,9.6,0,0,0,.74-.88,2.07,2.07,0,0,0,.35-1.61c0-.14,0-.22.24-.49a2.83,2.83,0,0,0-.18-4,2.77,2.77,0,0,0-1.55-.78,2.84,2.84,0,0,0-2.36.73c-.25.25-.27.25-.5.2a2,2,0,0,0-1.32.21,5.64,5.64,0,0,0-1.29,1.06l-.87.84-.55-.55-.56-.56,1.2-1.2c1-1,1.2-1.26,1.28-1.49.17-.6.3-.45-3.92-4.69-2.61-2.61-3.92-3.89-4.1-4A.88.88,0,0,0,185.75,45.47ZM187,48.66l.73.74-.74.74-.74.74-.76-.76-.76-.75.73-.73c.4-.4.74-.73.76-.73S186.55,48.25,187,48.66Zm-2.25,2.24.74.74-.74.75-.74.74-.76-.76-.76-.76.73-.73c.39-.39.74-.72.76-.72S184.3,50.49,184.71,50.9Zm4.47,0,.72.73-.74.74-.74.74-.74-.74-.74-.74.72-.73c.4-.39.74-.72.76-.72S188.78,50.49,189.18,50.88Zm2.22,3.71-.74.74-.76-.75-.75-.76.73-.74.75-.75.76.76.76.76Zm-4.46-1.46.72.72-.74.75-.74.73-.74-.73-.75-.75.73-.73c.4-.39.74-.72.76-.72S186.54,52.73,186.94,53.13Zm2.23,3.7-.75.75-.73-.73a6.3,6.3,0,0,1-.72-.79,8,8,0,0,1,.7-.77l.72-.71.75.75.76.76Zm14.67,8.71.74.74-.75.75-.74.74-.75-.76-.76-.76.72-.73c.4-.39.74-.72.76-.72S203.43,65.13,203.84,65.54Zm-2.25,2.24.75.74-.71.71a5.31,5.31,0,0,1-.78.71,7.19,7.19,0,0,1-.79-.72l-.73-.73.73-.73c.4-.4.74-.72.76-.72Zm4.47,0,.73.72-.75.75-.74.74-.74-.74-.74-.75.72-.72c.4-.4.74-.73.76-.73A9.79,9.79,0,0,1,206.06,67.77Zm2.22,3.7-.73.75-.76-.76L206,70.7l.74-.74.74-.74.76.76.76.75ZM203.82,70l.72.72-.74.75-.74.74-.74-.74-.74-.75.72-.72c.4-.4.74-.73.76-.73S203.42,69.61,203.82,70Zm2.22,3.7-.74.75-.76-.76-.75-.76.74-.74.74-.74.76.76.76.76Z"
     transform="translate(-8.68 -33.36)"
     id="path104" />
  <path
     class="cls-1"
     d="M184.52,61.27a3.64,3.64,0,0,0-2.35,1.18,2.63,2.63,0,0,0,.1,1.81A15,15,0,0,0,184.35,68l.4.55.39-.68c.2-.37.37-.71.38-.74a2.55,2.55,0,0,0-.32-.46,6.61,6.61,0,0,1-1.4-2.34c0-.6,1.07-.33,2.56.65a22.21,22.21,0,0,1,5.49,5.45c1,1.49,1.32,2.67.74,2.67A5.06,5.06,0,0,1,190.65,72c-.46-.34-.86-.63-.88-.63a13.72,13.72,0,0,0-1.26.75c-.11.08.08.24,1.12.93,2.15,1.43,4.1,2.1,4.86,1.65a3.1,3.1,0,0,0,.94-1.46c.72-2.19.06-5.34-1.62-7.72a12.79,12.79,0,0,0-2.28-2.31A9.82,9.82,0,0,0,184.52,61.27Z"
     transform="translate(-8.68 -33.36)"
     id="path106" />
  <path
     class="cls-1"
     d="M187.34,67.84c-.09.12-.54.86-1,1.64l-.86,1.44s-.07,0-.11,0a1.53,1.53,0,0,0-.44-.15,1.5,1.5,0,0,0-1.81,1.52,1.48,1.48,0,0,0,1.54,1.54,1.5,1.5,0,0,0,1.45-2,.82.82,0,0,1-.05-.27l1.5-.95c.82-.52,1.54-1,1.6-1.05.27-.23.08-.77-.46-1.32S187.62,67.47,187.34,67.84Z"
     transform="translate(-8.68 -33.36)"
     id="path108" />
  <path
     class="cls-1"
     d="M180.43,71.79a3.73,3.73,0,0,0-.19,2.31,3.37,3.37,0,0,0,3,2.63,5.17,5.17,0,0,0,1.7-.13.39.39,0,0,0,.18-.58c-.1-.17-.14-.18-.82-.22a3.12,3.12,0,0,1-3.2-3.3c0-.51,0-.58-.15-.67A.47.47,0,0,0,180.43,71.79Z"
     transform="translate(-8.68 -33.36)"
     id="path110" />
  <path
     class="cls-1"
     d="M178.08,72a7.32,7.32,0,0,0-.13,3.14,4.85,4.85,0,0,0,2.58,3.37,4.91,4.91,0,0,0,2.61.58,5.42,5.42,0,0,0,1.42-.12l.46-.13,0-.31c0-.44-.11-.52-.77-.44a5.52,5.52,0,0,1-2-.18,4.83,4.83,0,0,1-2.91-2.41,4.62,4.62,0,0,1-.54-2.49,4.66,4.66,0,0,0-.06-1C178.67,71.81,178.15,71.83,178.08,72Z"
     transform="translate(-8.68 -33.36)"
     id="path112" />
  <polygon
     class="cls-3"
     points="161.68 73.41 160.57 82.14 162.73 73.61 165.99 56.36 167.1 47.63 164.94 56.16 161.68 73.41"
     id="polygon114" />
  <polygon
     class="cls-3"
     points="167.01 74.34 165.9 83.06 168.06 74.54 171.32 57.29 172.43 48.56 170.27 57.09 167.01 74.34"
     id="polygon116" />
  <polygon
     class="cls-3"
     points="172.84 76.41 171.73 85.13 173.88 76.61 177.15 59.35 178.25 50.63 176.1 59.16 172.84 76.41"
     id="polygon118" />
  <text
     xml:space="preserve"
     style="font-style:normal;font-variant:normal;font-weight:normal;font-stretch:normal;font-size:8px;line-height:1.25;font-family:Arial;-inkscape-font-specification:'Arial, Normal';font-variant-ligatures:normal;font-variant-caps:normal;font-variant-numeric:normal;font-variant-east-asian:normal"
     x="10.339007"
     y="139.60785"
     id="text12473"><tspan
       sodipodi:role="line"
       id="tspan12471"
       x="10.339007"
       y="139.60785">Sensor remoto pasivo</tspan></text>
  <text
     xml:space="preserve"
     style="font-size:8px;line-height:1.25;font-family:Arial;-inkscape-font-specification:'Arial, Normal';font-weight:normal;font-style:normal;font-stretch:normal;font-variant:normal;font-variant-ligatures:normal;font-variant-caps:normal;font-variant-numeric:normal;font-variant-east-asian:normal"
     x="117.54019"
     y="139.60785"
     id="text12473-2"><tspan
       sodipodi:role="line"
       id="tspan12471-3"
       x="117.54019"
       y="139.60785">Sensor remoto activo</tspan></text>
</svg>
